<?xml version="1.0" encoding="utf-8"?>
<!-- Generator: Adobe Illustrator 27.5.0, SVG Export Plug-In . SVG Version: 6.00 Build 0)  -->
<svg version="1.1" xmlns="http://www.w3.org/2000/svg" xmlns:xlink="http://www.w3.org/1999/xlink" x="0px" y="0px"
	 viewBox="0 0 800 800" style="enable-background:new 0 0 800 800;" xml:space="preserve">
<g id="background">
	<rect y="-1.001" style="fill:#D3AF75;" width="800" height="800.001"/>
</g>
<g id="objects">
	<g style="opacity:0.7;">
		<path style="fill:#FFFFFF;" d="M437.278,470.144c-0.689,10.518-9.86,18.557-20.379,17.866l-181.002-11.888
			c-10.516-0.69-18.557-9.859-17.865-20.377l18.267-278.151c0.69-10.517,9.862-18.557,20.378-17.866l181.003,11.887
			c10.518,0.69,18.557,9.86,17.867,20.378L437.278,470.144z"/>
		
			<line style="fill:#1F273D;stroke:#DCDDE0;stroke-width:9.3896;stroke-miterlimit:10;" x1="261.94" y1="229.587" x2="424.369" y2="240.254"/>
		<g>
			
				<line style="fill:#1F273D;stroke:#DCDDE0;stroke-width:9.3896;stroke-miterlimit:10;" x1="263.162" y1="210.981" x2="425.591" y2="221.649"/>
			
				<line style="fill:#1F273D;stroke:#DCDDE0;stroke-width:9.3896;stroke-miterlimit:10;" x1="260.718" y1="248.193" x2="423.147" y2="258.86"/>
			
				<line style="fill:#1F273D;stroke:#DCDDE0;stroke-width:9.3896;stroke-miterlimit:10;" x1="259.497" y1="266.798" x2="421.925" y2="277.466"/>
			
				<line style="fill:#1F273D;stroke:#DCDDE0;stroke-width:9.3896;stroke-miterlimit:10;" x1="258.274" y1="285.404" x2="420.703" y2="296.071"/>
			
				<line style="fill:#1F273D;stroke:#DCDDE0;stroke-width:9.3896;stroke-miterlimit:10;" x1="257.053" y1="304.009" x2="419.481" y2="314.677"/>
			
				<line style="fill:#1F273D;stroke:#DCDDE0;stroke-width:9.3896;stroke-miterlimit:10;" x1="255.83" y1="322.615" x2="418.261" y2="333.282"/>
			
				<line style="fill:#1F273D;stroke:#DCDDE0;stroke-width:6.6394;stroke-miterlimit:10;" x1="249.589" y1="417.65" x2="330.804" y2="422.983"/>
			
				<line style="fill:#1F273D;stroke:#DCDDE0;stroke-width:5.2686;stroke-miterlimit:10;" x1="248.854" y1="428.842" x2="299.995" y2="432.2"/>
		</g>
	</g>
	<g>
		<path style="fill:#FFFFFF;" d="M452.127,438.044c2.227,10.302-4.379,20.553-14.682,22.78l-177.296,38.333
			c-10.301,2.228-20.553-4.378-22.779-14.681l-58.908-272.454c-2.228-10.302,4.38-20.553,14.681-22.78l177.296-38.333
			c10.303-2.228,20.554,4.379,22.781,14.681L452.127,438.044z"/>
		
			<line style="fill:#1F273D;stroke:#DCDDE0;stroke-width:9.3896;stroke-miterlimit:10;" x1="217.409" y1="254.962" x2="376.512" y2="220.563"/>
		<g>
			
				<line style="fill:#1F273D;stroke:#DCDDE0;stroke-width:9.3896;stroke-miterlimit:10;" x1="213.469" y1="236.738" x2="372.571" y2="202.338"/>
			
				<line style="fill:#1F273D;stroke:#DCDDE0;stroke-width:9.3896;stroke-miterlimit:10;" x1="221.35" y1="273.188" x2="380.452" y2="238.787"/>
			
				<line style="fill:#1F273D;stroke:#DCDDE0;stroke-width:9.3896;stroke-miterlimit:10;" x1="225.29" y1="291.411" x2="384.393" y2="257.012"/>
			
				<line style="fill:#1F273D;stroke:#DCDDE0;stroke-width:9.3896;stroke-miterlimit:10;" x1="229.23" y1="309.636" x2="388.333" y2="275.236"/>
			
				<line style="fill:#1F273D;stroke:#DCDDE0;stroke-width:9.3896;stroke-miterlimit:10;" x1="233.171" y1="327.86" x2="392.273" y2="293.461"/>
			
				<line style="fill:#1F273D;stroke:#DCDDE0;stroke-width:9.3896;stroke-miterlimit:10;" x1="237.11" y1="346.085" x2="396.214" y2="311.685"/>
			
				<line style="fill:#1F273D;stroke:#DCDDE0;stroke-width:6.6394;stroke-miterlimit:10;" x1="257.237" y1="439.174" x2="336.789" y2="421.974"/>
			
				<line style="fill:#1F273D;stroke:#DCDDE0;stroke-width:5.2686;stroke-miterlimit:10;" x1="259.608" y1="450.137" x2="309.701" y2="439.306"/>
		</g>
	</g>
	<g>
		<g>
			<path style="fill:#F6A2AA;" d="M162.775,639.333c-1.707,3.364-5.855,4.72-9.219,3.013l-2.689-1.364
				c-3.364-1.707-4.719-5.855-3.012-9.22l3.1-6.108c1.707-3.364,5.856-4.72,9.22-3.013l2.688,1.363
				c3.364,1.707,4.72,5.855,3.013,9.22L162.775,639.333z"/>
		</g>
		<g>
			<path style="fill:#FFD689;" d="M245.337,463.464l-2.36,15.309c-0.304,1.98-2.053,2.941-3.887,2.121l-8.639-3.841
				c-1.835-0.82-2.219-2.684-0.851-4.154l10.74-11.554"/>
			<path style="fill:#DC4C32;" d="M240.34,461.345l3.893-4.188c1.368-1.471,2.235-1.054,1.928,0.932l-0.824,5.376"/>
			<g>
				<path style="fill:#FF4C0C;" d="M156.303,627.44c-0.908,1.79-2.77,2.685-4.138,1.992c-1.368-0.694-1.744-2.727-0.836-4.517
					l76.269-150.298c0.908-1.79,2.771-2.686,4.138-1.992c1.368,0.694,1.744,2.726,0.836,4.516L156.303,627.44z"/>
			</g>
			<g>
				<path style="fill:#DC4C32;" d="M161.279,629.965c-0.908,1.79-2.771,2.686-4.139,1.991c-1.369-0.694-1.745-2.727-0.837-4.517
					l76.27-150.299c0.908-1.79,2.77-2.685,4.139-1.991c1.369,0.694,1.745,2.727,0.837,4.517L161.279,629.965z"/>
			</g>
			<g>
				<path style="fill:#FF4C0C;" d="M166.249,632.486c-0.908,1.79-2.769,2.687-4.136,1.993c-1.367-0.693-1.742-2.725-0.834-4.515
					l76.27-150.299c0.908-1.79,2.769-2.686,4.136-1.993c1.367,0.693,1.742,2.725,0.834,4.515L166.249,632.486z"/>
			</g>
		</g>
		
			<rect x="154.386" y="621.564" transform="matrix(0.4525 -0.8918 0.8918 0.4525 -475.1497 485.9208)" style="fill:#EDEDEE;" width="7.56" height="16.731"/>
	</g>
	<g>
		<g>
			<path style="fill:#F6A2AA;" d="M209.81,437c2.066,3.156,1.174,7.429-1.981,9.495l-2.523,1.651
				c-3.156,2.066-7.428,1.175-9.494-1.982l-3.753-5.731c-2.066-3.156-1.174-7.429,1.982-9.495l2.523-1.651
				c3.156-2.066,7.428-1.175,9.494,1.981L209.81,437z"/>
		</g>
		<g>
			<path style="fill:#FFD689;" d="M98.458,277.792l12.098,9.674c1.565,1.25,1.528,3.245-0.098,4.427l-7.633,5.576
				c-1.626,1.182-3.434,0.587-4.027-1.332l-4.67-15.065"/>
			<path style="fill:#00BD9D;" d="M94.127,281.071l-1.689-5.464c-0.593-1.919,0.2-2.463,1.769-1.207l4.251,3.392"/>
			<g>
				<path style="fill:#00CEB6;" d="M196.272,436.686c1.099,1.679,0.949,3.74-0.335,4.58c-1.284,0.84-3.233,0.153-4.332-1.525
					L99.29,298.728c-1.099-1.679-0.949-3.74,0.334-4.58c1.284-0.84,3.233-0.153,4.332,1.526L196.272,436.686z"/>
			</g>
			<g>
				<path style="fill:#00BD9D;" d="M200.941,433.63c1.099,1.679,0.948,3.74-0.336,4.581c-1.284,0.841-3.234,0.154-4.333-1.524
					l-92.316-141.012c-1.099-1.679-0.948-3.741,0.336-4.581c1.284-0.84,3.234-0.155,4.333,1.524L200.941,433.63z"/>
			</g>
			<g>
				<path style="fill:#00CEB6;" d="M205.604,430.577c1.099,1.679,0.949,3.739-0.333,4.579c-1.282,0.84-3.231,0.152-4.33-1.526
					l-92.316-141.013c-1.099-1.679-0.949-3.74,0.333-4.579c1.282-0.839,3.231-0.153,4.33,1.526L205.604,430.577z"/>
			</g>
		</g>
		
			<rect x="190.994" y="432.532" transform="matrix(0.8366 -0.5478 0.5478 0.8366 -206.425 180.4778)" style="fill:#EDEDEE;" width="16.732" height="7.56"/>
	</g>
	<g>
		<path style="fill:#1F273D;" d="M524.414,575.646c0,10.54-8.623,19.163-19.162,19.163H296.817c-10.54,0-19.164-8.623-19.164-19.163
			V257.869c0-10.54,8.624-19.164,19.164-19.164h208.435c10.539,0,19.162,8.624,19.162,19.164V575.646z"/>
		<path style="fill:#DCDDE0;" d="M510.895,556.135c0,10.54-8.623,19.163-19.164,19.163H310.338c-10.54,0-19.164-8.623-19.164-19.163
			v-278.75c0-10.54,8.623-19.164,19.164-19.164H491.73c10.541,0,19.164,8.624,19.164,19.164V556.135z"/>
		<path style="fill:#FFFFFF;" d="M455,564.082H313.543c-10.167,0-18.486-8.318-18.486-18.486V276.707
			c0-10.167,8.319-18.486,18.486-18.486h174.975c10.168,0,18.486,8.319,18.486,18.486V509"/>
		<path style="fill:#5D5D5D;" d="M334.036,265.443c0,4.322-2.21,7.857-4.913,7.857c-2.702,0-4.912-3.536-4.912-7.857v-32.231
			c0-4.321,2.211-7.857,4.912-7.857c2.702,0,4.913,3.536,4.913,7.857V265.443z"/>
		<path style="fill:#5D5D5D;" d="M362.794,265.443c0,4.322-2.21,7.857-4.912,7.857c-2.702,0-4.912-3.536-4.912-7.857v-32.231
			c0-4.321,2.211-7.857,4.912-7.857c2.701,0,4.912,3.536,4.912,7.857V265.443z"/>
		<path style="fill:#5D5D5D;" d="M391.559,265.443c0,4.322-2.211,7.857-4.912,7.857c-2.702,0-4.912-3.536-4.912-7.857v-32.231
			c0-4.321,2.21-7.857,4.912-7.857c2.701,0,4.912,3.536,4.912,7.857V265.443z"/>
		<path style="fill:#5D5D5D;" d="M420.324,265.443c0,4.322-2.209,7.857-4.912,7.857c-2.701,0-4.912-3.536-4.912-7.857v-32.231
			c0-4.321,2.211-7.857,4.912-7.857c2.703,0,4.912,3.536,4.912,7.857V265.443z"/>
		<path style="fill:#5D5D5D;" d="M449.082,265.443c0,4.322-2.211,7.857-4.912,7.857c-2.701,0-4.912-3.536-4.912-7.857v-32.231
			c0-4.321,2.211-7.857,4.912-7.857c2.701,0,4.912,3.536,4.912,7.857V265.443z"/>
		<path style="fill:#5D5D5D;" d="M477.857,265.443c0,4.322-2.211,7.857-4.912,7.857s-4.912-3.536-4.912-7.857v-32.231
			c0-4.321,2.211-7.857,4.912-7.857s4.912,3.536,4.912,7.857V265.443z"/>
	</g>
	<g>
		
			<polyline style="fill:none;stroke:#FF4C0C;stroke-width:5.9727;stroke-linecap:round;stroke-linejoin:round;stroke-miterlimit:10;" points="
			322.408,340.538 330.869,350.99 347.294,334.565 		"/>
		
			<line style="fill:none;stroke:#FF4C0C;stroke-width:8.959;stroke-miterlimit:10;" x1="371.185" y1="342.777" x2="485.662" y2="342.777"/>
		
			<polyline style="fill:none;stroke:#FF4C0C;stroke-width:5.9727;stroke-linecap:round;stroke-linejoin:round;stroke-miterlimit:10;" points="
			322.408,383.909 330.869,394.361 347.294,377.936 		"/>
		
			<line style="fill:none;stroke:#FF4C0C;stroke-width:8.959;stroke-miterlimit:10;" x1="371.185" y1="386.148" x2="485.662" y2="386.148"/>
		
			<polyline style="fill:none;stroke:#FF4C0C;stroke-width:5.9727;stroke-linecap:round;stroke-linejoin:round;stroke-miterlimit:10;" points="
			322.408,427.28 330.869,437.732 347.294,421.308 		"/>
		
			<line style="fill:none;stroke:#FF4C0C;stroke-width:8.959;stroke-miterlimit:10;" x1="371.185" y1="429.52" x2="485.662" y2="429.52"/>
		
			<polyline style="fill:none;stroke:#FF4C0C;stroke-width:5.9727;stroke-linecap:round;stroke-linejoin:round;stroke-miterlimit:10;" points="
			322.408,470.651 330.869,481.103 347.294,464.679 		"/>
		
			<line style="fill:none;stroke:#FF4C0C;stroke-width:8.959;stroke-miterlimit:10;" x1="371.185" y1="472.891" x2="485.662" y2="472.891"/>
		
			<line style="fill:none;stroke:#DCDDE0;stroke-width:8.959;stroke-miterlimit:10;" x1="371.185" y1="516.263" x2="485.662" y2="516.263"/>
		
			<path style="fill:#DEE1E3;stroke:#DEE1E3;stroke-width:5.9727;stroke-linecap:round;stroke-linejoin:round;stroke-miterlimit:10;" d="
			M346.797,515.24c0,6.734-5.459,12.194-12.195,12.194c-6.734,0-12.194-5.46-12.194-12.194c0-6.735,5.46-12.195,12.194-12.195
			C341.338,503.045,346.797,508.505,346.797,515.24z"/>
	</g>
	<path style="fill:#F7F7F7;" d="M455,564.082v-36.596c0-10.168,8.318-18.486,18.486-18.486h33.518"/>
	<g>
		<path style="fill:#E5E3E3;" d="M694.907,364.846c-0.021-0.262-0.074-0.517-0.095-0.78c-7.166,1.334-14.684,1.775-22.21,2.205
			c-2.391,2.682-4.78,5.363-7.171,8.045c9.701,4.172,19.146,4.016,28.809,7.568c0.027-0.188,0.075-0.371,0.103-0.558
			c3.715,2.086,8.507,1.404,11.458-1.909c3.413-3.829,3.076-9.693-0.752-13.105C702.184,363.758,698.179,363.307,694.907,364.846z"
			/>
		<path style="fill:#F2F2F2;" d="M672.602,366.272c7.526-0.43,15.044-0.871,22.21-2.205c-1.573-18.046-9.685-35.56-24.276-48.565
			c-30.355-27.061-76.904-24.387-103.965,5.971c-27.063,30.36-24.391,76.908,5.967,103.968c30.36,27.063,76.908,24.39,103.972-5.971
			c9.78-10.972,15.625-24.067,17.73-37.584c-9.662-3.552-19.107-3.396-28.809-7.568
			C667.822,371.634,670.212,368.953,672.602,366.272z"/>
		<path style="fill:#F2F2F2;" d="M675.866,378.805c5.071-0.292,12.825,1.808,17.896,1.517
			C688.691,380.613,680.938,378.514,675.866,378.805z"/>
		<path style="fill:#D2D4D5;" d="M657.789,329.801c22.463,20.022,24.443,54.462,4.422,76.923
			c-20.023,22.462-54.463,24.436-76.926,4.414c-22.458-20.019-24.436-54.457-4.413-76.92
			C600.893,311.758,635.33,309.781,657.789,329.801z"/>
		<path style="fill:#F2F2F2;" d="M655,332.931c20.733,18.482,22.56,50.27,4.079,71.001c-18.482,20.736-50.271,22.56-71.003,4.077
			c-20.73-18.477-22.558-50.266-4.075-71C602.481,316.276,634.271,314.453,655,332.931z"/>
		<path style="fill:#320C11;" d="M645.838,343.208c15.058,13.422,16.386,36.51,2.966,51.564
			c-13.422,15.057-36.509,16.38-51.566,2.958c-15.053-13.417-16.379-36.504-2.958-51.561
			C607.699,331.116,630.785,329.792,645.838,343.208z"/>
		<path style="fill:#401E21;" d="M645.56,345.766c14.192,12.651,15.442,34.415,2.793,48.606
			c-12.651,14.193-34.413,15.441-48.605,2.789c-14.188-12.647-15.438-34.406-2.786-48.6
			C609.611,334.371,631.372,333.118,645.56,345.766z"/>
	</g>
	<g>
		<g>
			<path style="fill:#F6A2AA;" d="M174.32,518.959c0.53,3.734-2.091,7.225-5.826,7.755l-2.985,0.424
				c-3.734,0.53-7.224-2.091-7.755-5.825l-0.963-6.783c-0.531-3.734,2.091-7.224,5.825-7.754l2.986-0.425
				c3.734-0.53,7.224,2.092,7.754,5.826L174.32,518.959z"/>
		</g>
		<g>
			<path style="fill:#FFD689;" d="M141.104,327.535l6.849,13.895c0.886,1.795,0.002,3.587-1.972,3.967l-9.278,1.807
				c-1.974,0.379-3.358-0.927-3.081-2.916l2.173-15.624"/>
			<path style="fill:#305EBC;" d="M135.795,328.664l0.787-5.663c0.277-1.989,1.23-2.146,2.117-0.343l2.405,4.877"/>
			<g>
				<path style="fill:#177AFF;" d="M162.193,512.927c0.282,1.986-0.729,3.788-2.246,4.004c-1.518,0.216-2.99-1.234-3.272-3.221
					l-23.704-166.867c-0.282-1.987,0.729-3.789,2.246-4.004c1.517-0.216,2.99,1.233,3.272,3.22L162.193,512.927z"/>
			</g>
			<g>
				<path style="fill:#305EBC;" d="M167.718,512.142c0.282,1.986-0.73,3.789-2.249,4.005c-1.52,0.216-2.994-1.233-3.276-3.22
					l-23.704-166.868c-0.282-1.987,0.73-3.789,2.249-4.004c1.52-0.216,2.994,1.233,3.276,3.22L167.718,512.142z"/>
			</g>
			<g>
				<path style="fill:#177AFF;" d="M173.24,511.356c0.282,1.986-0.729,3.789-2.247,4.005c-1.519,0.216-2.992-1.233-3.274-3.22
					l-23.704-166.867c-0.282-1.987,0.73-3.789,2.248-4.005c1.519-0.215,2.992,1.233,3.274,3.22L173.24,511.356z"/>
			</g>
		</g>
		
			<rect x="156.785" y="510.118" transform="matrix(0.9901 -0.1406 0.1406 0.9901 -70.6155 28.326)" style="fill:#EDEDEE;" width="16.732" height="7.56"/>
	</g>
</g>
<g id="designed_by_freepik">
	<g>
		<g>
			<path style="fill:#FFFFFF;" d="M286.491,768.252v-0.258c-0.348,0.398-0.691,0.725-1.031,0.973
				c-0.338,0.252-0.705,0.441-1.102,0.57c-0.395,0.133-0.826,0.195-1.295,0.195c-0.621,0-1.197-0.131-1.725-0.393
				c-0.529-0.264-0.986-0.639-1.373-1.127c-0.387-0.486-0.68-1.059-0.879-1.719c-0.199-0.658-0.299-1.371-0.299-2.137
				c0-1.621,0.397-2.885,1.188-3.791c0.791-0.904,1.834-1.357,3.125-1.357c0.746,0,1.377,0.129,1.891,0.385
				c0.512,0.256,1.012,0.652,1.5,1.182v-3.826c0-0.533,0.105-0.934,0.318-1.207c0.211-0.271,0.514-0.408,0.906-0.408
				s0.695,0.125,0.908,0.375c0.211,0.252,0.318,0.619,0.318,1.107v11.436c0,0.494-0.113,0.863-0.342,1.111
				c-0.228,0.246-0.523,0.369-0.885,0.369c-0.353,0-0.646-0.127-0.879-0.383C286.606,769.092,286.491,768.727,286.491,768.252z
				 M281.392,764.443c0,0.703,0.109,1.301,0.326,1.795c0.219,0.494,0.518,0.865,0.898,1.115c0.381,0.25,0.795,0.377,1.244,0.377
				c0.455,0,0.871-0.119,1.25-0.358c0.375-0.236,0.676-0.602,0.9-1.092c0.227-0.49,0.338-1.106,0.338-1.838
				c0-0.691-0.111-1.285-0.338-1.783c-0.225-0.496-0.527-0.875-0.91-1.139c-0.385-0.262-0.803-0.393-1.26-0.393
				c-0.475,0-0.898,0.135-1.271,0.402c-0.375,0.269-0.664,0.654-0.869,1.158C281.493,763.193,281.392,763.777,281.392,764.443z"/>
			<path style="fill:#FFFFFF;" d="M297.925,765.1h-5.07c0.006,0.588,0.123,1.107,0.355,1.557c0.23,0.449,0.539,0.789,0.922,1.016
				c0.383,0.229,0.805,0.342,1.268,0.342c0.311,0,0.594-0.035,0.85-0.107c0.258-0.074,0.506-0.188,0.746-0.344
				c0.24-0.154,0.463-0.32,0.664-0.498c0.203-0.178,0.465-0.42,0.789-0.723c0.133-0.113,0.322-0.172,0.57-0.172
				c0.266,0,0.48,0.074,0.645,0.221c0.164,0.146,0.248,0.35,0.248,0.617c0,0.234-0.092,0.506-0.275,0.82
				c-0.185,0.314-0.461,0.615-0.832,0.902c-0.371,0.289-0.834,0.527-1.396,0.717c-0.559,0.191-1.203,0.285-1.932,0.285
				c-1.666,0-2.961-0.475-3.885-1.424s-1.387-2.238-1.387-3.865c0-0.768,0.113-1.479,0.342-2.133
				c0.228-0.656,0.56-1.217,0.996-1.685c0.438-0.469,0.977-0.828,1.615-1.078c0.641-0.25,1.35-0.375,2.129-0.375
				c1.012,0,1.881,0.213,2.605,0.641c0.727,0.428,1.27,0.981,1.629,1.656c0.361,0.678,0.543,1.369,0.543,2.07
				c0,0.654-0.188,1.076-0.561,1.269C299.13,765.002,298.602,765.1,297.925,765.1z M292.854,763.627h4.701
				c-0.063-0.887-0.303-1.551-0.717-1.99c-0.416-0.441-0.961-0.66-1.639-0.66c-0.647,0-1.178,0.223-1.592,0.668
				C293.194,762.092,292.942,762.752,292.854,763.627z"/>
			<path style="fill:#FFFFFF;" d="M309.739,766.342c0,0.715-0.172,1.328-0.521,1.838c-0.348,0.51-0.863,0.896-1.543,1.16
				c-0.682,0.262-1.51,0.393-2.484,0.393c-0.93,0-1.729-0.143-2.393-0.428c-0.666-0.283-1.156-0.641-1.473-1.066
				c-0.316-0.43-0.475-0.857-0.475-1.289c0-0.285,0.1-0.527,0.305-0.73c0.201-0.201,0.459-0.303,0.77-0.303
				c0.271,0,0.478,0.066,0.625,0.199c0.146,0.133,0.285,0.32,0.418,0.559c0.266,0.465,0.584,0.807,0.955,1.037
				c0.371,0.227,0.875,0.342,1.516,0.342c0.52,0,0.945-0.117,1.277-0.348c0.332-0.232,0.498-0.496,0.498-0.793
				c0-0.457-0.172-0.787-0.518-0.996c-0.346-0.209-0.914-0.41-1.705-0.6c-0.893-0.221-1.619-0.455-2.18-0.699
				c-0.56-0.242-1.008-0.565-1.344-0.963c-0.336-0.398-0.504-0.891-0.504-1.473c0-0.517,0.154-1.01,0.465-1.473
				c0.311-0.461,0.77-0.83,1.375-1.105c0.604-0.275,1.332-0.414,2.188-0.414c0.672,0,1.275,0.07,1.809,0.211
				c0.535,0.137,0.982,0.326,1.34,0.56c0.358,0.233,0.631,0.492,0.816,0.777c0.188,0.285,0.279,0.563,0.279,0.836
				c0,0.297-0.1,0.541-0.297,0.732c-0.199,0.188-0.482,0.285-0.852,0.285c-0.266,0-0.492-0.076-0.678-0.23
				c-0.188-0.15-0.4-0.379-0.643-0.682c-0.195-0.254-0.426-0.457-0.691-0.609c-0.268-0.152-0.627-0.227-1.084-0.227
				c-0.469,0-0.857,0.098-1.168,0.299c-0.31,0.199-0.465,0.447-0.465,0.744c0,0.273,0.113,0.496,0.34,0.67
				c0.229,0.176,0.535,0.32,0.924,0.434c0.385,0.113,0.916,0.252,1.596,0.416c0.803,0.197,1.459,0.432,1.969,0.703
				c0.51,0.272,0.897,0.594,1.16,0.965C309.608,765.445,309.739,765.867,309.739,766.342z"/>
			<path style="fill:#FFFFFF;" d="M312.39,757.984c-0.361,0-0.67-0.111-0.926-0.332c-0.258-0.221-0.385-0.535-0.385-0.941
				c0-0.367,0.131-0.668,0.393-0.906c0.264-0.238,0.57-0.357,0.918-0.357c0.336,0,0.633,0.107,0.893,0.324
				c0.26,0.215,0.389,0.527,0.389,0.939c0,0.4-0.127,0.711-0.381,0.936C313.038,757.871,312.737,757.984,312.39,757.984z
				 M313.671,760.662v7.494c0,0.519-0.123,0.912-0.369,1.178c-0.248,0.266-0.561,0.398-0.941,0.398
				c-0.381,0-0.689-0.135-0.926-0.408c-0.238-0.272-0.355-0.662-0.355-1.168v-7.418c0-0.512,0.117-0.898,0.355-1.158
				c0.236-0.26,0.545-0.391,0.926-0.391c0.381,0,0.693,0.131,0.941,0.391C313.548,759.84,313.671,760.201,313.671,760.662z"/>
			<path style="fill:#FFFFFF;" d="M325.03,761.09v7.531c0,0.861-0.092,1.604-0.277,2.225c-0.182,0.619-0.477,1.133-0.883,1.537
				c-0.404,0.404-0.935,0.707-1.59,0.902c-0.654,0.197-1.471,0.295-2.445,0.295c-0.893,0-1.691-0.125-2.395-0.375
				c-0.701-0.252-1.242-0.574-1.623-0.969c-0.381-0.397-0.57-0.803-0.57-1.221c0-0.316,0.107-0.576,0.322-0.773
				c0.215-0.201,0.477-0.301,0.779-0.301c0.379,0,0.713,0.168,0.998,0.504c0.139,0.17,0.281,0.344,0.432,0.518
				c0.148,0.176,0.315,0.324,0.494,0.447c0.18,0.123,0.396,0.215,0.65,0.275c0.252,0.059,0.545,0.09,0.873,0.09
				c0.672,0,1.193-0.094,1.563-0.281c0.371-0.185,0.631-0.447,0.779-0.783c0.148-0.334,0.236-0.693,0.262-1.078
				c0.025-0.383,0.043-0.998,0.057-1.848c-0.398,0.559-0.859,0.982-1.383,1.273c-0.521,0.291-1.145,0.438-1.865,0.438
				c-0.867,0-1.625-0.223-2.275-0.666c-0.648-0.443-1.148-1.063-1.496-1.861c-0.348-0.799-0.521-1.719-0.521-2.764
				c0-0.777,0.105-1.482,0.318-2.107c0.213-0.629,0.514-1.156,0.906-1.588c0.393-0.43,0.846-0.754,1.358-0.973
				c0.514-0.219,1.076-0.328,1.691-0.328c0.734,0,1.371,0.143,1.91,0.422c0.537,0.283,1.037,0.725,1.5,1.326v-0.351
				c0-0.449,0.109-0.797,0.332-1.045c0.223-0.246,0.508-0.371,0.855-0.371c0.5,0,0.832,0.164,0.996,0.49
				C324.948,760.006,325.03,760.477,325.03,761.09z M317.517,764.377c0,1.051,0.23,1.846,0.689,2.383
				c0.459,0.539,1.053,0.809,1.781,0.809c0.43,0,0.836-0.117,1.219-0.348c0.385-0.231,0.695-0.58,0.938-1.045
				c0.238-0.465,0.359-1.029,0.359-1.695c0-1.057-0.232-1.881-0.697-2.469c-0.467-0.588-1.078-0.883-1.838-0.883
				c-0.742,0-1.336,0.281-1.781,0.846C317.739,762.537,317.517,763.338,317.517,764.377z"/>
			<path style="fill:#FFFFFF;" d="M329.151,760.625v0.313c0.455-0.602,0.953-1.043,1.496-1.324c0.541-0.281,1.162-0.424,1.865-0.424
				c0.684,0,1.295,0.15,1.834,0.447c0.537,0.299,0.941,0.719,1.205,1.262c0.172,0.318,0.283,0.66,0.332,1.027
				c0.051,0.367,0.078,0.836,0.078,1.406v4.824c0,0.519-0.119,0.912-0.357,1.178c-0.236,0.266-0.545,0.398-0.926,0.398
				c-0.387,0-0.699-0.135-0.939-0.408c-0.242-0.272-0.361-0.662-0.361-1.168v-4.322c0-0.853-0.119-1.508-0.357-1.961
				c-0.236-0.451-0.709-0.68-1.42-0.68c-0.461,0-0.883,0.139-1.262,0.414c-0.381,0.275-0.66,0.654-0.836,1.135
				c-0.127,0.387-0.191,1.107-0.191,2.166v3.248c0,0.525-0.121,0.92-0.365,1.183c-0.242,0.262-0.559,0.393-0.943,0.393
				c-0.375,0-0.682-0.135-0.922-0.408c-0.24-0.272-0.361-0.662-0.361-1.168v-7.494c0-0.494,0.107-0.863,0.322-1.107
				c0.215-0.242,0.51-0.365,0.883-0.365c0.228,0,0.436,0.055,0.619,0.162c0.182,0.109,0.33,0.269,0.441,0.484
				C329.097,760.051,329.151,760.315,329.151,760.625z"/>
			<path style="fill:#FFFFFF;" d="M344.925,765.1h-5.07c0.006,0.588,0.125,1.107,0.355,1.557c0.232,0.449,0.539,0.789,0.922,1.016
				c0.383,0.229,0.805,0.342,1.268,0.342c0.311,0,0.594-0.035,0.852-0.107c0.254-0.074,0.504-0.188,0.744-0.344
				c0.24-0.154,0.461-0.32,0.666-0.498c0.201-0.178,0.465-0.42,0.787-0.723c0.133-0.113,0.322-0.172,0.57-0.172
				c0.266,0,0.48,0.074,0.646,0.221c0.164,0.146,0.246,0.35,0.246,0.617c0,0.234-0.092,0.506-0.275,0.82
				c-0.184,0.314-0.461,0.615-0.832,0.902c-0.371,0.289-0.834,0.527-1.395,0.717c-0.561,0.191-1.205,0.285-1.934,0.285
				c-1.666,0-2.959-0.475-3.885-1.424c-0.924-0.949-1.387-2.238-1.387-3.865c0-0.768,0.113-1.479,0.342-2.133
				c0.228-0.656,0.56-1.217,0.998-1.685c0.436-0.469,0.975-0.828,1.613-1.078c0.641-0.25,1.35-0.375,2.129-0.375
				c1.012,0,1.881,0.213,2.605,0.641c0.727,0.428,1.27,0.981,1.631,1.656c0.359,0.678,0.541,1.369,0.541,2.07
				c0,0.654-0.187,1.076-0.561,1.269C346.13,765.002,345.604,765.1,344.925,765.1z M339.854,763.627h4.701
				c-0.063-0.887-0.303-1.551-0.717-1.99c-0.416-0.441-0.961-0.66-1.639-0.66c-0.647,0-1.178,0.223-1.592,0.668
				C340.194,762.092,339.942,762.752,339.854,763.627z"/>
			<path style="fill:#FFFFFF;" d="M355.495,768.252v-0.258c-0.348,0.398-0.691,0.725-1.029,0.973
				c-0.34,0.252-0.707,0.441-1.102,0.57c-0.396,0.133-0.828,0.195-1.297,0.195c-0.621,0-1.195-0.131-1.725-0.393
				c-0.527-0.264-0.986-0.639-1.371-1.127c-0.387-0.486-0.68-1.059-0.879-1.719c-0.199-0.658-0.299-1.371-0.299-2.137
				c0-1.621,0.395-2.885,1.186-3.791c0.793-0.904,1.834-1.357,3.125-1.357c0.748,0,1.379,0.129,1.891,0.385
				c0.514,0.256,1.014,0.652,1.5,1.182v-3.826c0-0.533,0.107-0.934,0.318-1.207c0.213-0.271,0.516-0.408,0.908-0.408
				c0.393,0,0.693,0.125,0.906,0.375c0.213,0.252,0.318,0.619,0.318,1.107v11.436c0,0.494-0.113,0.863-0.342,1.111
				c-0.228,0.246-0.521,0.369-0.883,0.369c-0.355,0-0.648-0.127-0.879-0.383C355.61,769.092,355.495,768.727,355.495,768.252z
				 M350.395,764.443c0,0.703,0.109,1.301,0.328,1.795c0.217,0.494,0.518,0.865,0.898,1.115c0.379,0.25,0.793,0.377,1.242,0.377
				c0.457,0,0.873-0.119,1.25-0.358c0.377-0.236,0.678-0.602,0.902-1.092c0.225-0.49,0.336-1.106,0.336-1.838
				c0-0.691-0.111-1.285-0.336-1.783c-0.225-0.496-0.529-0.875-0.912-1.139c-0.385-0.262-0.803-0.393-1.26-0.393
				c-0.473,0-0.898,0.135-1.272,0.402c-0.373,0.269-0.664,0.654-0.869,1.158C350.497,763.193,350.395,763.777,350.395,764.443z"/>
			<path style="fill:#FFFFFF;" d="M366.093,756.816v3.959c0.488-0.506,0.984-0.894,1.492-1.162c0.506-0.269,1.133-0.404,1.881-0.404
				c0.861,0,1.615,0.205,2.266,0.611c0.648,0.41,1.15,1.002,1.51,1.777c0.357,0.775,0.537,1.695,0.537,2.76
				c0,0.785-0.1,1.504-0.299,2.16c-0.201,0.656-0.49,1.225-0.869,1.705c-0.381,0.48-0.842,0.853-1.383,1.117
				c-0.541,0.262-1.139,0.393-1.791,0.393c-0.398,0-0.773-0.047-1.125-0.143c-0.352-0.094-0.65-0.219-0.898-0.375
				c-0.246-0.154-0.457-0.314-0.631-0.478c-0.174-0.164-0.404-0.412-0.689-0.742v0.258c0,0.486-0.117,0.855-0.352,1.107
				c-0.232,0.25-0.531,0.373-0.891,0.373c-0.369,0-0.662-0.123-0.879-0.373c-0.219-0.252-0.328-0.621-0.328-1.107V756.93
				c0-0.525,0.105-0.924,0.316-1.191c0.213-0.269,0.51-0.404,0.891-0.404c0.398,0,0.705,0.129,0.92,0.385
				C365.985,755.977,366.093,756.34,366.093,756.816z M366.218,764.519c0,1.031,0.234,1.824,0.707,2.377
				c0.471,0.555,1.092,0.834,1.857,0.834c0.65,0,1.213-0.283,1.686-0.852c0.471-0.566,0.707-1.379,0.707-2.435
				c0-0.684-0.098-1.273-0.295-1.768c-0.195-0.494-0.475-0.875-0.834-1.144c-0.361-0.268-0.783-0.402-1.264-0.402
				c-0.494,0-0.936,0.135-1.32,0.402c-0.387,0.269-0.691,0.658-0.912,1.168C366.327,763.209,366.218,763.816,366.218,764.519z"/>
			<path style="fill:#FFFFFF;" d="M377.14,770.057l0.236-0.58l-3.191-8.035c-0.195-0.461-0.293-0.799-0.293-1.008
				c0-0.221,0.057-0.426,0.17-0.615c0.115-0.191,0.272-0.344,0.471-0.457c0.199-0.115,0.406-0.172,0.621-0.172
				c0.373,0,0.656,0.119,0.846,0.357c0.191,0.236,0.357,0.576,0.504,1.02l2.193,6.383l2.08-5.936
				c0.164-0.48,0.314-0.857,0.447-1.131c0.133-0.271,0.273-0.455,0.422-0.549c0.148-0.096,0.359-0.144,0.633-0.144
				c0.197,0,0.385,0.053,0.565,0.158c0.18,0.103,0.32,0.244,0.418,0.422c0.098,0.178,0.148,0.363,0.148,0.561
				c-0.027,0.119-0.066,0.291-0.125,0.514c-0.057,0.221-0.127,0.447-0.209,0.674l-3.381,8.852c-0.291,0.779-0.576,1.389-0.855,1.832
				c-0.279,0.443-0.647,0.785-1.105,1.022c-0.461,0.238-1.078,0.357-1.857,0.357c-0.76,0-1.33-0.082-1.709-0.246
				c-0.381-0.166-0.57-0.467-0.57-0.904c0-0.297,0.09-0.527,0.272-0.688c0.18-0.162,0.447-0.244,0.801-0.244
				c0.141,0,0.277,0.02,0.41,0.059c0.164,0.037,0.307,0.057,0.426,0.057c0.297,0,0.533-0.043,0.703-0.133
				c0.172-0.088,0.324-0.242,0.461-0.461C376.806,770.803,376.962,770.481,377.14,770.057z"/>
		</g>
		<g>
			<path style="fill:#FFFFFF;" d="M414.702,759.414h0.619v-0.777c0-0.814,0.098-1.457,0.305-1.938
				c0.205-0.479,0.557-0.826,1.047-1.045c0.492-0.217,1.164-0.326,2.018-0.326c1.52,0,2.273,0.367,2.273,1.113
				c0,0.238-0.08,0.445-0.24,0.615c-0.154,0.17-0.344,0.256-0.559,0.256c-0.1,0-0.279-0.018-0.527-0.059
				c-0.236-0.033-0.453-0.057-0.623-0.057c-0.467,0-0.767,0.141-0.904,0.416c-0.127,0.275-0.195,0.668-0.195,1.184v0.617h0.633
				c0.99,0,1.48,0.297,1.48,0.896c0,0.418-0.127,0.69-0.393,0.805c-0.262,0.113-0.625,0.17-1.088,0.17h-0.633v6.871
				c0,0.512-0.121,0.9-0.371,1.168c-0.24,0.273-0.553,0.406-0.941,0.406c-0.367,0-0.672-0.133-0.918-0.406
				c-0.244-0.268-0.363-0.656-0.363-1.168v-6.871h-0.715c-0.389,0-0.684-0.084-0.892-0.262c-0.209-0.17-0.315-0.398-0.315-0.678
				C413.399,759.723,413.833,759.414,414.702,759.414"/>
			<path style="fill:#FFFFFF;" d="M423.192,765.988v2.168c0,0.523-0.133,0.92-0.375,1.18c-0.246,0.266-0.559,0.395-0.938,0.395
				c-0.383,0-0.688-0.131-0.928-0.4c-0.234-0.264-0.359-0.656-0.359-1.174v-7.223c0-1.166,0.42-1.748,1.26-1.748
				c0.436,0,0.744,0.135,0.936,0.408c0.189,0.273,0.293,0.674,0.316,1.207c0.309-0.533,0.623-0.934,0.947-1.207
				c0.334-0.273,0.764-0.408,1.31-0.408c0.549,0,1.072,0.135,1.586,0.408c0.516,0.273,0.77,0.637,0.77,1.084
				c0,0.315-0.109,0.58-0.324,0.781c-0.221,0.209-0.455,0.313-0.707,0.313c-0.1,0-0.33-0.063-0.693-0.18
				c-0.363-0.113-0.688-0.174-0.963-0.174c-0.379,0-0.691,0.103-0.93,0.299c-0.242,0.205-0.432,0.496-0.564,0.887
				c-0.131,0.394-0.219,0.865-0.273,1.404C423.214,764.549,423.192,765.211,423.192,765.988"/>
			<path style="fill:#FFFFFF;" d="M435.112,765.096h-5.074c0.01,0.588,0.125,1.111,0.355,1.559c0.234,0.447,0.539,0.787,0.924,1.018
				c0.385,0.227,0.805,0.34,1.268,0.34c0.313,0,0.594-0.033,0.85-0.111c0.254-0.07,0.506-0.186,0.746-0.342
				c0.242-0.152,0.459-0.318,0.664-0.5c0.203-0.174,0.467-0.416,0.791-0.719c0.133-0.113,0.324-0.174,0.566-0.174
				c0.27,0,0.483,0.074,0.65,0.223c0.166,0.147,0.244,0.35,0.244,0.617c0,0.234-0.09,0.508-0.27,0.818
				c-0.188,0.318-0.463,0.617-0.834,0.906c-0.375,0.285-0.84,0.527-1.398,0.715c-0.559,0.19-1.205,0.285-1.932,0.285
				c-1.67,0-2.965-0.473-3.887-1.422c-0.924-0.951-1.391-2.242-1.391-3.867c0-0.768,0.115-1.479,0.348-2.135
				c0.223-0.658,0.557-1.217,0.998-1.688c0.436-0.471,0.971-0.828,1.611-1.078c0.639-0.25,1.348-0.375,2.129-0.375
				c1.012,0,1.881,0.215,2.605,0.646c0.725,0.422,1.275,0.977,1.629,1.654c0.363,0.68,0.543,1.367,0.543,2.074
				c0,0.648-0.189,1.07-0.561,1.266C436.313,765,435.79,765.096,435.112,765.096 M430.038,763.621h4.701
				c-0.063-0.885-0.297-1.549-0.713-1.986c-0.418-0.441-0.959-0.66-1.641-0.66c-0.646,0-1.178,0.221-1.592,0.67
				C430.38,762.09,430.126,762.748,430.038,763.621"/>
			<path style="fill:#FFFFFF;" d="M445.899,765.096h-5.072c0.004,0.588,0.125,1.111,0.354,1.559
				c0.232,0.447,0.539,0.787,0.922,1.018c0.383,0.227,0.805,0.34,1.27,0.34c0.309,0,0.594-0.033,0.846-0.111
				c0.26-0.07,0.506-0.186,0.75-0.342c0.242-0.152,0.459-0.318,0.664-0.5c0.199-0.174,0.465-0.416,0.787-0.719
				c0.137-0.113,0.328-0.174,0.57-0.174c0.267,0,0.482,0.074,0.65,0.223c0.164,0.147,0.24,0.35,0.24,0.617
				c0,0.234-0.088,0.508-0.273,0.818c-0.178,0.318-0.455,0.617-0.83,0.906c-0.371,0.285-0.842,0.527-1.397,0.715
				c-0.557,0.19-1.207,0.285-1.934,0.285c-1.668,0-2.959-0.473-3.887-1.422c-0.924-0.951-1.391-2.242-1.391-3.867
				c0-0.768,0.117-1.479,0.35-2.135c0.225-0.658,0.559-1.217,0.996-1.688c0.434-0.471,0.973-0.828,1.613-1.078
				c0.637-0.25,1.35-0.375,2.129-0.375c1.008,0,1.879,0.215,2.613,0.646c0.719,0.422,1.266,0.977,1.621,1.654
				c0.359,0.68,0.545,1.367,0.545,2.074c0,0.648-0.191,1.07-0.561,1.266C447.101,765,446.575,765.096,445.899,765.096
				 M440.827,763.621h4.701c-0.064-0.885-0.305-1.549-0.715-1.986c-0.422-0.441-0.963-0.66-1.645-0.66
				c-0.645,0-1.176,0.221-1.592,0.67C441.165,762.09,440.911,762.748,440.827,763.621"/>
			<path style="fill:#FFFFFF;" d="M451.579,760.644v0.311c0.486-0.602,0.994-1.043,1.523-1.324c0.52-0.285,1.119-0.428,1.783-0.428
				c0.795,0,1.535,0.209,2.207,0.617c0.672,0.414,1.197,1.016,1.588,1.807c0.391,0.795,0.588,1.73,0.588,2.814
				c0,0.795-0.113,1.531-0.338,2.201c-0.223,0.668-0.537,1.227-0.928,1.68c-0.393,0.449-0.855,0.801-1.389,1.045
				c-0.543,0.242-1.113,0.363-1.729,0.363c-0.738,0-1.363-0.149-1.865-0.447c-0.502-0.291-0.982-0.732-1.441-1.305v3.893
				c0,1.135-0.416,1.709-1.244,1.709c-0.49,0-0.809-0.146-0.971-0.439c-0.152-0.299-0.234-0.723-0.234-1.291v-11.193
				c0-0.494,0.107-0.859,0.32-1.107c0.215-0.238,0.512-0.363,0.885-0.363c0.369,0,0.666,0.125,0.896,0.373
				C451.466,759.813,451.579,760.17,451.579,760.644 M456.663,764.412c0-0.685-0.107-1.273-0.314-1.764
				c-0.209-0.492-0.498-0.867-0.865-1.127c-0.369-0.264-0.783-0.396-1.232-0.396c-0.715,0-1.32,0.283-1.809,0.844
				c-0.494,0.566-0.74,1.394-0.74,2.492c0,1.027,0.244,1.834,0.736,2.406c0.486,0.574,1.086,0.859,1.813,0.859
				c0.428,0,0.83-0.127,1.197-0.373c0.371-0.252,0.664-0.627,0.883-1.127C456.552,765.725,456.663,765.119,456.663,764.412"/>
			<path style="fill:#FFFFFF;" d="M461.88,757.979c-0.363,0-0.67-0.115-0.924-0.336c-0.26-0.223-0.387-0.531-0.387-0.936
				c0-0.369,0.129-0.67,0.395-0.91c0.264-0.234,0.566-0.355,0.916-0.355c0.338,0,0.635,0.105,0.893,0.318
				c0.26,0.219,0.391,0.535,0.391,0.947c0,0.399-0.127,0.711-0.377,0.936C462.53,757.863,462.231,757.979,461.88,757.979
				 M463.163,760.656v7.502c0,0.516-0.123,0.908-0.369,1.172c-0.25,0.27-0.56,0.4-0.941,0.4c-0.381,0-0.685-0.133-0.93-0.406
				c-0.232-0.275-0.354-0.664-0.354-1.166v-7.428c0-0.51,0.121-0.895,0.354-1.154c0.244-0.264,0.549-0.391,0.93-0.391
				c0.381,0,0.691,0.127,0.941,0.391C463.04,759.836,463.163,760.199,463.163,760.656"/>
			<path style="fill:#FFFFFF;" d="M471.522,768.547l-2.283-3.766l-1.408,1.328v2.066c0,0.498-0.133,0.881-0.396,1.148
				c-0.258,0.273-0.566,0.406-0.906,0.406c-0.398,0-0.715-0.131-0.941-0.4c-0.227-0.264-0.344-0.656-0.344-1.174v-11.063
				c0-0.574,0.115-1.012,0.33-1.315c0.225-0.305,0.545-0.451,0.955-0.451c0.398,0,0.711,0.137,0.949,0.41
				c0.233,0.272,0.354,0.674,0.354,1.203v6.293l2.916-3.063c0.361-0.377,0.633-0.641,0.826-0.779c0.19-0.139,0.42-0.207,0.69-0.207
				c0.326,0,0.594,0.104,0.814,0.309c0.213,0.205,0.322,0.465,0.322,0.773c0,0.379-0.355,0.889-1.057,1.522l-1.375,1.262
				l2.658,4.184c0.193,0.313,0.338,0.543,0.424,0.705c0.084,0.16,0.131,0.32,0.131,0.463c0,0.412-0.115,0.734-0.342,0.975
				c-0.225,0.236-0.523,0.354-0.887,0.354c-0.316,0-0.563-0.08-0.732-0.256C472.05,769.303,471.813,768.992,471.522,768.547"/>
			<path style="fill:#FFFFFF;" d="M477.159,769.731c-0.393,0-0.728-0.125-1.016-0.381c-0.283-0.248-0.428-0.606-0.428-1.064
				c0-0.385,0.137-0.719,0.41-0.994c0.275-0.279,0.607-0.42,1.008-0.42c0.396,0,0.734,0.141,1.021,0.412
				c0.279,0.275,0.422,0.613,0.422,1.002c0,0.453-0.142,0.809-0.422,1.06C477.868,769.606,477.538,769.731,477.159,769.731"/>
			<path style="fill:#FFFFFF;" d="M490.056,766.521c0,0.32-0.096,0.668-0.291,1.033c-0.191,0.371-0.486,0.719-0.885,1.051
				c-0.395,0.332-0.891,0.601-1.494,0.803c-0.602,0.203-1.281,0.307-2.031,0.307c-1.607,0-2.857-0.469-3.758-1.4
				c-0.895-0.936-1.346-2.19-1.346-3.76c0-1.068,0.205-2.006,0.619-2.824c0.408-0.815,1.004-1.447,1.781-1.895
				c0.779-0.447,1.717-0.67,2.795-0.67c0.672,0,1.287,0.098,1.852,0.295c0.561,0.195,1.033,0.451,1.426,0.76
				c0.387,0.315,0.686,0.643,0.889,0.992c0.207,0.352,0.307,0.68,0.307,0.986c0,0.309-0.113,0.572-0.342,0.787
				c-0.234,0.215-0.516,0.324-0.838,0.324c-0.221,0-0.398-0.057-0.541-0.166c-0.145-0.111-0.305-0.289-0.48-0.541
				c-0.316-0.479-0.645-0.842-0.994-1.08c-0.344-0.242-0.781-0.361-1.314-0.361c-0.762,0-1.383,0.297-1.853,0.896
				c-0.467,0.596-0.703,1.42-0.703,2.455c0,0.488,0.063,0.939,0.184,1.348c0.117,0.406,0.291,0.756,0.52,1.043
				c0.23,0.287,0.504,0.506,0.826,0.654c0.324,0.154,0.682,0.227,1.065,0.227c0.521,0,0.967-0.121,1.336-0.361
				c0.377-0.24,0.703-0.607,0.986-1.102c0.158-0.291,0.328-0.518,0.51-0.684c0.182-0.164,0.408-0.25,0.674-0.25
				c0.316,0,0.582,0.123,0.787,0.363C489.95,765.992,490.056,766.25,490.056,766.521"/>
			<path style="fill:#FFFFFF;" d="M501.247,764.461c0,0.77-0.121,1.484-0.355,2.139c-0.248,0.652-0.592,1.213-1.049,1.678
				c-0.457,0.469-1.004,0.828-1.633,1.08c-0.639,0.248-1.35,0.375-2.139,0.375c-0.785,0-1.494-0.127-2.121-0.383
				c-0.623-0.248-1.17-0.613-1.627-1.082c-0.459-0.477-0.809-1.033-1.051-1.676c-0.229-0.644-0.35-1.355-0.35-2.131
				c0-0.787,0.123-1.506,0.357-2.158c0.242-0.654,0.588-1.213,1.039-1.674c0.451-0.461,0.994-0.816,1.631-1.07
				c0.643-0.248,1.35-0.373,2.121-0.373c0.785,0,1.498,0.125,2.139,0.381c0.639,0.252,1.184,0.615,1.642,1.08
				c0.459,0.475,0.803,1.029,1.041,1.672C501.126,762.969,501.247,763.678,501.247,764.461 M498.644,764.461
				c0-1.059-0.234-1.881-0.697-2.469c-0.463-0.596-1.09-0.889-1.875-0.889c-0.508,0-0.955,0.133-1.344,0.394
				c-0.385,0.262-0.68,0.648-0.889,1.164c-0.209,0.514-0.315,1.113-0.315,1.799c0,0.678,0.102,1.268,0.309,1.773
				c0.207,0.51,0.502,0.897,0.885,1.166c0.387,0.266,0.836,0.404,1.354,0.404c0.785,0,1.412-0.297,1.875-0.893
				C498.409,766.322,498.644,765.502,498.644,764.461"/>
			<path style="fill:#FFFFFF;" d="M511.14,764.65v3.447c0,0.547-0.121,0.951-0.371,1.227c-0.25,0.273-0.57,0.408-0.977,0.408
				c-0.393,0-0.715-0.135-0.951-0.408c-0.248-0.275-0.373-0.68-0.373-1.227v-4.131c0-0.654-0.02-1.162-0.063-1.525
				c-0.045-0.354-0.168-0.654-0.361-0.883c-0.197-0.234-0.51-0.352-0.932-0.352c-0.852,0-1.406,0.291-1.678,0.881
				c-0.266,0.576-0.404,1.414-0.404,2.508v3.502c0,0.537-0.123,0.945-0.361,1.223c-0.25,0.273-0.568,0.412-0.967,0.412
				c-0.395,0-0.715-0.139-0.965-0.412c-0.252-0.277-0.377-0.685-0.377-1.223v-7.42c0-0.488,0.111-0.859,0.336-1.111
				c0.228-0.256,0.525-0.381,0.889-0.381c0.357,0,0.652,0.123,0.892,0.356c0.236,0.238,0.354,0.566,0.354,0.984v0.244
				c0.453-0.535,0.934-0.932,1.445-1.18c0.516-0.26,1.082-0.387,1.713-0.387c0.65,0,1.209,0.131,1.676,0.391
				c0.471,0.26,0.854,0.654,1.162,1.176c0.438-0.527,0.908-0.922,1.41-1.18c0.5-0.258,1.053-0.387,1.662-0.387
				c0.705,0,1.32,0.143,1.834,0.42c0.51,0.277,0.893,0.68,1.146,1.195c0.221,0.473,0.33,1.209,0.33,2.217v5.063
				c0,0.547-0.121,0.951-0.367,1.227c-0.246,0.273-0.574,0.408-0.979,0.408c-0.396,0-0.715-0.139-0.965-0.412
				c-0.25-0.277-0.377-0.685-0.377-1.223v-4.361c0-0.559-0.023-1.004-0.07-1.338c-0.047-0.338-0.176-0.621-0.381-0.848
				c-0.213-0.227-0.531-0.344-0.953-0.344c-0.342,0-0.666,0.108-0.975,0.309c-0.307,0.197-0.547,0.477-0.721,0.813
				C511.237,762.766,511.14,763.541,511.14,764.65"/>
		</g>
		<g>
			<path style="fill:#FFFFFF;" d="M390.435,763.832c-0.002-0.004-0.002-0.01-0.002-0.017
				C390.433,763.822,390.433,763.828,390.435,763.832z"/>
			<path style="fill:#FFFFFF;" d="M390.565,764.662c0.002,0,0.002,0,0.002,0c-0.049-0.236-0.088-0.471-0.117-0.703
				C390.479,764.193,390.519,764.428,390.565,764.662z"/>
			<path style="fill:#FFFFFF;" d="M391.423,767.068c-0.006-0.01-0.01-0.022-0.016-0.033
				C391.413,767.047,391.417,767.059,391.423,767.068z"/>
			<path style="fill:#FFFFFF;" d="M391.341,766.908c-0.022-0.045-0.043-0.09-0.064-0.135
				C391.298,766.82,391.319,766.863,391.341,766.908z"/>
			<path style="fill:#FFFFFF;" d="M390.806,765.588c0.127,0.4,0.281,0.789,0.457,1.158c-0.18-0.377-0.33-0.766-0.453-1.158
				C390.81,765.588,390.808,765.588,390.806,765.588z"/>
			<path style="fill:#FFFFFF;" d="M400.472,753.896c0.5,0,0.871,0.039,1.295,0.111l0.119-0.764c0,0-1.17-0.359-2.709-0.234
				l-0.121-0.414c0.478-0.102,0.838-0.527,0.838-1.035c0-0.582-0.475-1.053-1.057-1.053c-0.584,0-1.057,0.471-1.057,1.053
				c0,0.508,0.359,0.934,0.836,1.035l0.135,0.463c-1.635,0.225-2.936,0.861-2.936,0.861l0.23,0.705
				c0.988-0.328,1.846-0.529,2.623-0.613C399.431,753.932,400.005,753.896,400.472,753.896z"/>
			<path style="fill:#FFFFFF;" d="M391.403,757.754l0.006-0.008c0.039-0.049,0.076-0.096,0.113-0.143l-0.313-0.225l-0.488-0.357
				c-0.027,0.039-0.795,0.744-1.4,2.049c-0.025-0.041-0.057-0.082-0.09-0.119c-0.182-0.199-0.435-0.301-0.758-0.295
				c-0.004,0-0.01,0-0.016,0c-0.199,0-0.336-0.067-0.426-0.146c0.088-0.113,0.143-0.256,0.143-0.414c0-0.367-0.301-0.668-0.67-0.668
				c-0.369,0-0.668,0.301-0.668,0.668c0,0.371,0.299,0.67,0.668,0.67c0.059,0,0.113-0.01,0.168-0.022
				c0.164,0.184,0.424,0.342,0.807,0.334c0.197-0.002,0.342,0.049,0.438,0.156c0.111,0.121,0.148,0.295,0.16,0.428
				c-0.002,0.002-0.002,0.004-0.004,0.004c-0.435,1.19-0.31,2.67-0.31,2.67l1.057,0.043c0.022-0.539,0.1-1.482,0.373-2.231
				C390.718,758.699,391.378,757.793,391.403,757.754z"/>
			<path style="fill:#FFFFFF;" d="M409.671,754.779c-0.369,0-0.67,0.299-0.67,0.67c0,0.057,0.01,0.111,0.025,0.164
				c-0.184,0.166-0.344,0.428-0.338,0.811c0.004,0.197-0.049,0.34-0.154,0.438c-0.086,0.074-0.191,0.115-0.295,0.141
				c-0.787-1.104-1.756-1.775-1.756-1.775l-0.76,0.813c0.574,0.521,1.16,1.176,1.728,1.99c0.395,0.565,0.799,1.291,1.137,2.016
				l1.023-0.486c0,0-0.469-1.156-1.125-2.191c0.113-0.041,0.228-0.104,0.33-0.193c0.201-0.18,0.299-0.436,0.293-0.758
				c-0.002-0.207,0.066-0.348,0.148-0.441c0.113,0.088,0.256,0.143,0.412,0.143c0.371,0,0.67-0.299,0.67-0.668
				C410.341,755.078,410.042,754.779,409.671,754.779z"/>
			<path style="fill:#FFFFFF;" d="M407.015,763.982c-1.41,0.686-3.73,1.594-6.783,2.02c-1.197,0.166-2.357,0.227-3.428,0.227
				c-1.391,0-2.619-0.104-3.563-0.223c-1.076-0.135-1.916-0.301-2.432-0.418c0.123,0.393,0.273,0.781,0.453,1.158
				c0.004,0.01,0.008,0.021,0.014,0.027c0.021,0.045,0.043,0.09,0.064,0.135c0.022,0.043,0.043,0.086,0.066,0.127
				c0.006,0.012,0.01,0.023,0.016,0.033c0.303,0.57,0.668,1.094,1.082,1.549c1.439,1.574,2.906,1.824,2.92,1.826l0.023,0.002
				l0.022,0.008c0.014,0.006,1.314,0.426,3.291,0.426c1.945,0,3.854-0.393,5.674-1.168c1.348-0.689,2.621-1.736,3.254-2.67
				c0.488-0.723,0.842-1.492,1.051-2.293c0.111-0.426,0.199-1.107,0.146-1.826C408.489,763.19,407.862,763.568,407.015,763.982z"/>
			<path style="fill:#FFFFFF;" d="M391.856,758.088c-0.041,0.06-0.652,0.926-1.135,2.254c-0.361,0.994-0.346,2.443-0.346,2.459
				v0.004c0,0.34,0.019,0.676,0.057,1.01c0,0.008,0,0.014,0.002,0.017c0.004,0.043,0.012,0.084,0.016,0.127
				c0.029,0.232,0.068,0.467,0.117,0.703c0.701,0.178,4.879,1.152,9.549,0.502c2.926-0.408,5.148-1.273,6.498-1.928
				c1.123-0.543,1.842-1.035,2.121-1.238c-0.277-1.027-1.041-2.641-1.742-3.646c-2.006-2.865-4.168-3.6-5.279-3.783
				c-0.424-0.068-0.762-0.109-1.242-0.109c-0.447,0-1.002,0.037-1.742,0.115c-0.744,0.076-1.572,0.271-2.533,0.596
				c-1.348,0.451-2.566,1.158-3.527,2.047l-0.031,0.031C392.495,757.379,392.198,757.654,391.856,758.088z M404.126,757.422
				c0.961,0,1.742,0.781,1.742,1.742c0,0.963-0.781,1.744-1.742,1.744c-0.963,0-1.742-0.781-1.742-1.744
				C402.384,758.203,403.163,757.422,404.126,757.422z M395.884,757.352c1.557,0,2.818,1.262,2.818,2.818
				c0,1.555-1.262,2.814-2.818,2.814c-1.555,0-2.815-1.26-2.815-2.814C393.069,758.613,394.329,757.352,395.884,757.352z"/>
		</g>
	</g>
</g>
</svg>
